<?xml version="1.0" encoding="UTF-8"?><svg xmlns="http://www.w3.org/2000/svg" xmlns:xlink="http://www.w3.org/1999/xlink" height="62.6" preserveAspectRatio="xMidYMid meet" version="1.0" viewBox="0.0 -0.6 62.0 62.6" width="62.0" zoomAndPan="magnify"><g><g><g><path d="M22,46c4.78,0,8.68,3.72,8.98,8.42L26,53l-0.94-3.28c-0.63-2.2-2.64-3.72-4.93-3.72v-0.03 C20.42,45.99,20.71,46,21,46H22z" fill="#fcd770"/></g><g><path d="M25.06,49.72L26,53l-7.53,5.65c-0.2-0.17-0.39-0.35-0.58-0.54C16.1,56.32,15,53.86,15,51.13 c0-1.41,0.58-2.7,1.5-3.63c0.93-0.92,2.22-1.5,3.63-1.5C22.42,46,24.43,47.52,25.06,49.72z" fill="#fcd770"/></g><g><path d="M20.04,15.64C18.68,16.53,17.09,17,15.47,17c-1.11,0-2.2-0.22-3.2-0.64 c-0.05-0.02-0.1-0.04-0.15-0.07l-0.01,0.01l-3.06,1.02C7.83,17.72,7,18.87,7,20.16V24H6c-1.05,0-1.96,0.53-2.5,1.34l-1.43-1.91 C1.38,22.5,1,21.37,1,20.22c0-1.42,0.56-2.78,1.57-3.79L3,16l-0.55-0.55C1.52,14.52,1,13.26,1,11.95C1,9.22,3.22,7,5.95,7H7 c1.23-2.45,3.73-4,6.47-4H15l0.5-0.34C17.13,1.58,19.04,1,21,1s3.87,0.58,5.5,1.66L27,3h1.53c2.04,0,3.95,0.86,5.3,2.31 C33.3,6.36,33,7.56,33,8.82c0,1.3,0.33,2.57,0.93,3.68c0.59,1.12,1.47,2.1,2.55,2.82L39,17v3c0,1.09,0.58,2.04,1.45,2.57 c-0.14,0.3-0.32,0.59-0.52,0.86l-1.43,1.91C37.96,24.53,37.05,24,36,24h-1v-4.15c0-1.13-0.64-2.17-1.66-2.68L29,15l-1.36,0.91 C26.57,16.62,25.31,17,24.03,17c-1.23,0-2.42-0.35-3.43-0.97C20.41,15.91,20.22,15.78,20.04,15.64z" fill="#b27946"/></g><g><path d="M44,17h1v3c0,0.83-0.34,1.58-0.88,2.12C43.58,22.66,42.83,23,42,23c-0.57,0-1.1-0.16-1.55-0.43 C39.58,22.04,39,21.09,39,20v-3h1H44z" fill="#ccd1d9"/></g><g><path d="M44,17h-4h-1l-2.52-1.68c-1.08-0.72-1.96-1.7-2.55-2.82C33.33,11.39,33,10.12,33,8.82 c0-1.26,0.3-2.46,0.83-3.51C35.12,2.75,37.76,1,40.82,1h2.36C47.5,1,51,4.5,51,8.82c0,2.61-1.31,5.05-3.48,6.5L45,17H44z" fill="#ffeaa7"/></g><g><path d="M53 33H57V43H53z" fill="#b4dd7f"/></g><g><path d="M57 33H61V43H57z" fill="#ff826e"/></g><g><path d="M61,32v1h-4h-4v-1c0-2.21,1.79-4,4-4c1.1,0,2.1,0.45,2.83,1.17C60.55,29.9,61,30.9,61,32z" fill="#ccd1d9"/></g><g><path d="M57,43h4v0.73c0,0.18-0.05,0.35-0.13,0.5L59.86,46h-5.72l-1.01-1.77 c-0.08-0.15-0.13-0.32-0.13-0.5V43H57z" fill="#ccd1d9"/></g><g><path d="M59.86 46L57 51 54.14 46z" fill="#969faa"/></g><g><path d="M58 55L58 59 45.67 59 47 55z" fill="#cf9e76"/></g><g><path d="M36.51,53.6l2.96-8.15c0.32-0.87,1.15-1.45,2.08-1.45c0.3,0,0.59,0.06,0.87,0.18l5.1,2.19 c0.9,0.38,1.48,1.26,1.48,2.24c0,0.26-0.04,0.52-0.12,0.76L47,55l-1.33,4l-0.21,0.63c-0.28,0.82-1.04,1.37-1.9,1.37H38 c1.66,0,3-1.34,3-3c0-0.83-0.34-1.58-0.88-2.12C39.58,55.34,38.83,55,38,55h-1v-0.15C37,54.37,36.81,53.93,36.51,53.6z" fill="#e6e9ed"/></g><g><path d="M40.12,55.88C40.66,56.42,41,57.17,41,58c0,1.66-1.34,3-3,3H24.87c-2.45,0-4.67-0.88-6.4-2.35 L26,53l4.98,1.42L33,55l0.49-0.98C33.8,53.4,34.44,53,35.15,53c0.54,0,1.02,0.23,1.36,0.6c0.3,0.33,0.49,0.77,0.49,1.25V55h1 C38.83,55,39.58,55.34,40.12,55.88z" fill="#f0d0b4"/></g><g><path d="M38.5,25.34C37.96,24.53,37.05,24,36,24h-1v-4.15c0-1.13-0.64-2.17-1.66-2.68L29,15l-1.36,0.91 C26.57,16.62,25.31,17,24.03,17c-1.23,0-2.42-0.35-3.43-0.97c-0.19-0.12-0.38-0.25-0.56-0.39C18.68,16.53,17.09,17,15.47,17 c-1.11,0-2.2-0.22-3.2-0.64c-0.05-0.02-0.1-0.04-0.15-0.07l-0.01,0.01l-3.06,1.02C7.83,17.72,7,18.87,7,20.16V24H6 c-1.05,0-1.96,0.53-2.5,1.34C3.19,25.82,3,26.39,3,27c0,0.83,0.34,1.58,0.88,2.12C4.42,29.66,5.17,30,6,30h1v2 c0,7.44,5.8,13.52,13.13,13.97C20.42,45.99,20.71,46,21,46c3.86,0,7.36-1.57,9.9-4.1c2.53-2.54,4.1-6.04,4.1-9.9v-2h1 c0.83,0,1.58-0.34,2.12-0.88C38.66,28.58,39,27.83,39,27C39,26.39,38.81,25.82,38.5,25.34z" fill="#f0d0b4"/></g><g><path d="M29,21c3.31,0,6,2.69,6,6s-2.69,6-6,6s-6-2.69-6-6S25.69,21,29,21z" fill="#69d6f4"/></g><g><path d="M13,21c3.31,0,6,2.69,6,6s-2.69,6-6,6s-6-2.69-6-6S9.69,21,13,21z" fill="#69d6f4"/></g><g><circle cx="29" cy="27" fill="#d3a06c" r="2"/></g><g><circle cx="13" cy="27" fill="#d3a06c" r="2"/></g></g><g><path d="M26.895,38.447l-1.789-0.895C24.659,38.445,23.762,39,22.764,39H18v2h4.764C24.524,41,26.107,40.022,26.895,38.447z" fill="inherit"/><path d="M13,24c-1.654,0-3,1.346-3,3s1.346,3,3,3s3-1.346,3-3S14.654,24,13,24z M13,28c-0.551,0-1-0.449-1-1s0.449-1,1-1 s1,0.449,1,1S13.551,28,13,28z" fill="inherit"/><path d="M29,30c1.654,0,3-1.346,3-3s-1.346-3-3-3s-3,1.346-3,3S27.346,30,29,30z M29,26c0.551,0,1,0.449,1,1s-0.449,1-1,1 s-1-0.449-1-1S28.449,26,29,26z" fill="inherit"/><path d="M49.823,49.692C49.94,49.341,50,48.976,50,48.605c0-1.375-0.817-2.614-2.081-3.156l-5.107-2.189 C42.41,43.087,41.984,43,41.547,43c-1.344,0-2.556,0.849-3.016,2.112l-2.552,7.018C35.715,52.049,35.437,52,35.146,52 c-1.087,0-2.066,0.604-2.553,1.578l-0.116,0.233L31.9,53.646c-0.461-3.388-2.615-6.217-5.563-7.644C31.977,43.844,36,38.39,36,32 v-1c2.206,0,4-1.794,4-4c0-0.557-0.116-1.087-0.323-1.57l1.052-1.403c0.05-0.067,0.083-0.145,0.131-0.214 C41.223,23.924,41.601,24,42,24c2.206,0,4-1.794,4-4v-2.465l2.074-1.383C50.532,14.514,52,11.771,52,8.817v0 C52,3.955,48.045,0,43.184,0h-2.367c-2.982,0-5.617,1.492-7.214,3.764C32.163,2.638,30.375,2,28.528,2h-1.225l-0.252-0.168 c-3.596-2.397-8.506-2.397-12.102,0L14.697,2h-1.225c-2.928,0-5.581,1.518-7.064,4H5.95C2.669,6,0,8.669,0,11.95 c0,1.519,0.565,2.951,1.596,4.056C0.564,17.168,0,18.649,0,20.216c0,1.365,0.451,2.718,1.27,3.811l1.052,1.404 C2.116,25.913,2,26.443,2,27c0,2.206,1.794,4,4,4v1c0,6.668,4.376,12.327,10.405,14.273C14.946,47.395,14,49.152,14,51.13 C14,57.124,18.876,62,24.87,62H38h5.559c1.274,0,2.4-0.802,2.824-2H58v-2H47.054l0.667-2H58v-2h-9.613L49.823,49.692z M29.753,53.032l-2.944-0.841l-0.785-2.745c-0.184-0.646-0.472-1.242-0.84-1.776C27.422,48.646,29.139,50.613,29.753,53.032z M22.685,24h-3.37c-1.126-2.361-3.53-4-6.315-4c-1.958,0-3.728,0.81-5,2.11v-1.948c0-0.862,0.549-1.625,1.368-1.897l2.709-0.903 C13.144,17.776,14.287,18,15.466,18c1.589,0,3.128-0.422,4.51-1.185C21.16,17.573,22.554,18,24.027,18 c1.488,0,2.93-0.437,4.169-1.262l0.875-0.584l3.823,1.912C33.576,18.406,34,19.092,34,19.854v2.256c-1.272-1.3-3.042-2.11-5-2.11 C26.215,20,23.811,21.639,22.685,24z M18,27c0,2.757-2.243,5-5,5s-5-2.243-5-5s2.243-5,5-5S18,24.243,18,27z M29,22 c2.757,0,5,2.243,5,5s-2.243,5-5,5s-5-2.243-5-5S26.243,22,29,22z M36,29v-4c1.103,0,2,0.897,2,2S37.103,29,36,29z M42,22 c-1.103,0-2-0.897-2-2v-2h4v2C44,21.103,43.103,22,42,22z M40.816,2h2.367C46.942,2,50,5.058,50,8.817 c0,2.284-1.135,4.404-3.036,5.671L45,15.798v-5.384c0-0.635,0.258-1.258,0.707-1.707l-1.414-1.414 C43.459,8.126,43,9.235,43,10.414V16h-2v-5.586c0-1.179-0.459-2.288-1.293-3.121l-1.414,1.414C38.742,9.156,39,9.779,39,10.414 v5.384l-1.964-1.31C35.135,13.221,34,11.101,34,8.816C34,5.058,37.058,2,40.816,2z M3.157,14.743C2.411,13.997,2,13.005,2,11.95 C2,9.772,3.772,8,5.95,8h1.668l0.276-0.553C8.958,5.321,11.095,4,13.472,4h1.831l0.756-0.504c2.937-1.957,6.946-1.957,9.883,0 L26.697,4h1.831c1.513,0,2.978,0.557,4.109,1.545C32.23,6.558,32,7.66,32,8.817c0,2.955,1.468,5.697,3.926,7.335L38,17.535V20 c0,1.089,0.44,2.075,1.148,2.797c-0.007,0.009-0.011,0.02-0.018,0.03l-0.739,0.986C37.722,23.309,36.9,23,36,23v-3.146 c0-1.524-0.847-2.896-2.211-3.578l-4.861-2.43l-1.841,1.228C26.178,15.68,25.12,16,24.027,16c-2.103,0-3.994-1.168-4.934-3.05 l-0.199-0.398l-1.788,0.896l0.199,0.397c0.286,0.571,0.644,1.085,1.047,1.553C17.443,15.786,16.467,16,15.466,16 c-1.968,0-3.818-0.767-5.21-2.158l-0.549-0.549l-1.414,1.414l0.549,0.549c0.282,0.282,0.584,0.537,0.895,0.778l-1.001,0.334 C7.099,16.913,6,18.438,6,20.162V23c-0.9,0-1.722,0.309-2.39,0.813L2.87,22.827C2.309,22.079,2,21.151,2,20.216 c0-1.162,0.453-2.255,1.274-3.077L4.414,16L3.157,14.743z M4,27c0-1.103,0.897-2,2-2v4C4.897,29,4,28.103,4,27z M8,32v-0.11 c1.272,1.3,3.042,2.11,5,2.11c3.86,0,7-3.14,7-7c0-0.34-0.033-0.672-0.08-1h2.16C22.033,26.328,22,26.66,22,27c0,3.86,3.14,7,7,7 c1.958,0,3.728-0.81,5-2.11V32c0,7.168-5.832,13-13,13S8,39.168,8,32z M16,51.13c0-2.277,1.853-4.13,4.13-4.13 c1.834,0,3.467,1.232,3.971,2.996l0.748,2.618l-6.302,4.727C16.974,55.739,16,53.547,16,51.13z M24.87,60 c-1.732,0-3.345-0.507-4.712-1.369l6.044-4.533l7.321,2.091l0.858-1.717C34.527,54.181,34.82,54,35.146,54 C35.617,54,36,54.383,36,54.854V56h2c1.103,0,2,0.897,2,2s-0.897,2-2,2H24.87z M44.507,59.316C44.371,59.725,43.99,60,43.559,60 h-2.115C41.788,59.409,42,58.732,42,58c0-2.206-1.794-4-4-4h-0.13c-0.06-0.192-0.147-0.371-0.244-0.543l2.786-7.661 c0.229-0.629,0.996-0.962,1.611-0.698l5.108,2.189C47.659,47.513,48,48.031,48,48.605c0,0.155-0.025,0.307-0.074,0.453 L44.507,59.316z" fill="inherit"/><path d="M42.5 46.307H44.501V51.692H42.5z" fill="inherit" transform="rotate(-68.199 43.499 48.999)"/><path d="M41.5 49.307H43.501V54.692H41.5z" fill="inherit" transform="rotate(-68.199 42.499 51.999)"/><path d="M57,27c-2.757,0-5,2.243-5,5v11.734c0,0.348,0.091,0.691,0.264,0.992L57,53.016l4.736-8.288 C61.909,44.426,62,44.083,62,43.734V32C62,29.243,59.757,27,57,27z M57,29c1.654,0,3,1.346,3,3h-6C54,30.346,55.346,29,57,29z M54,42v-8h2v8H54z M54.152,44h5.696l-0.571,1h-4.554L54.152,44z M58,42v-8h2v8H58z M55.866,47h2.268L57,48.984L55.866,47z" fill="inherit"/><path d="M50 20H52V22H50z" fill="inherit"/><path d="M54 20H56V22H54z" fill="inherit"/><path d="M58 20H60V22H58z" fill="inherit"/></g></g></svg>